HIERARCHY
ROOT Hips
{
	OFFSET 0.000000 0.000000 0.000000
	CHANNELS 6 Xposition Yposition Zposition Xrotation Yrotation Zrotation
	JOINT LeftUpLeg_virtual
	{
		OFFSET 0.000000 0.000000 0.000000
		CHANNELS 3 Xrotation Yrotation Zrotation
		JOINT LeftUpLeg
		{
			OFFSET 10.205400 -3.823500 0.155100
			CHANNELS 3 Xrotation Yrotation Zrotation
			JOINT LeftLeg
			{
				OFFSET 0.708757 -12.982077 0.567790
				CHANNELS 3 Xrotation Yrotation Zrotation
				JOINT LeftFoot
				{
					OFFSET -0.708756 -10.717838 -2.184338
					CHANNELS 3 Xrotation Yrotation Zrotation
					JOINT LeftToeBase
					{
						OFFSET 0.108149 -7.191104 7.560241
						CHANNELS 3 Xrotation Yrotation Zrotation
						JOINT LeftToe_End
						{
							OFFSET 0.070230 0.081724 4.490308
							CHANNELS 3 Xrotation Yrotation Zrotation
							End Site
							{
								OFFSET 0 0 0
							}
						}
					}
				}
			}
		}
	}
	JOINT RightUpLeg_virtual
	{
		OFFSET 0.000000 0.000000 0.000000
		CHANNELS 3 Xrotation Yrotation Zrotation
		JOINT RightUpLeg
		{
			OFFSET -10.205400 -3.823500 0.005500
			CHANNELS 3 Xrotation Yrotation Zrotation
			JOINT RightLeg
			{
				OFFSET -0.708756 -12.982134 0.610632
				CHANNELS 3 Xrotation Yrotation Zrotation
				JOINT RightFoot
				{
					OFFSET 0.708754 -10.717769 -1.945823
					CHANNELS 3 Xrotation Yrotation Zrotation
					JOINT RightToeBase
					{
						OFFSET -0.108140 -7.191069 7.372968
						CHANNELS 3 Xrotation Yrotation Zrotation
						JOINT RightToe_End
						{
							OFFSET -0.070227 0.081735 4.479403
							CHANNELS 3 Xrotation Yrotation Zrotation
							End Site
							{
								OFFSET 0 0 0
							}
						}
					}
				}
			}
		}
	}
	JOINT Spine_virtual
	{
		OFFSET 0.000000 0.000000 0.000000
		CHANNELS 3 Xrotation Yrotation Zrotation
		JOINT Spine
		{
			OFFSET 0.000000 6.876099 0.125700
			CHANNELS 3 Xrotation Yrotation Zrotation
			JOINT Spine1
			{
				OFFSET 0.000000 5.730043 0.104720
				CHANNELS 3 Xrotation Yrotation Zrotation
				JOINT Spine1_split
				{
					OFFSET 0.000000 5.730043 0.104720
					CHANNELS 3 Xrotation Yrotation Zrotation
					JOINT Spine2
					{
						OFFSET 0.000000 5.730043 0.104720
						CHANNELS 3 Xrotation Yrotation Zrotation
						JOINT Neck_virtual
						{
							OFFSET 0.000000 0.000000 0.000000
							CHANNELS 3 Xrotation Yrotation Zrotation
							JOINT Neck
							{
								OFFSET 0.000000 10.314075 0.188496
								CHANNELS 3 Xrotation Yrotation Zrotation
								JOINT Head
								{
									OFFSET 0.000000 7.643700 -2.377400
									CHANNELS 3 Xrotation Yrotation Zrotation
									JOINT HeadTop_End
									{
										OFFSET 0.000000 43.788605 -13.619600
										CHANNELS 3 Xrotation Yrotation Zrotation
										End Site
										{
											OFFSET 0 0 0
										}
									}
								}
							}
						}
						JOINT LeftShoulder_virtual
						{
							OFFSET 0.000000 0.000000 0.000000
							CHANNELS 3 Xrotation Yrotation Zrotation
							JOINT LeftShoulder
							{
								OFFSET 2.196100 4.412489 0.087492
								CHANNELS 3 Xrotation Yrotation Zrotation
								JOINT LeftShoulder_split
								{
									OFFSET 2.196100 4.412489 0.087492
									CHANNELS 3 Xrotation Yrotation Zrotation
									JOINT LeftArm
									{
										OFFSET 8.771219 -2.981674 -0.026999
										CHANNELS 3 Xrotation Yrotation Zrotation
										JOINT LeftForeArm
										{
											OFFSET 8.512804 0.000000 -0.000000
											CHANNELS 3 Xrotation Yrotation Zrotation
											JOINT LeftHand
											{
												OFFSET 18.484802 0.000000 -0.000000
												CHANNELS 3 Xrotation Yrotation Zrotation
												End Site
												{
													OFFSET 0 0 0
												}
											}
										}
									}
								}
							}
						}
						JOINT RightShoulder_virtual
						{
							OFFSET 0.000000 0.000000 0.000000
							CHANNELS 3 Xrotation Yrotation Zrotation
							JOINT RightShoulder
							{
								OFFSET -2.196100 4.412496 0.070690
								CHANNELS 3 Xrotation Yrotation Zrotation
								JOINT RightShoulder_split
								{
									OFFSET -2.196100 4.412496 0.070690
									CHANNELS 3 Xrotation Yrotation Zrotation
									JOINT RightArm
									{
										OFFSET -8.771282 -2.981682 -0.094208
										CHANNELS 3 Xrotation Yrotation Zrotation
										JOINT RightForeArm
										{
											OFFSET -8.494598 0.000000 0.000000
											CHANNELS 3 Xrotation Yrotation Zrotation
											JOINT RightHand
											{
												OFFSET -18.483803 0.000000 0.000001
												CHANNELS 3 Xrotation Yrotation Zrotation
												End Site
												{
													OFFSET 0 0 0
												}
											}
										}
									}
								}
							}
						}
					}
				}
			}
		}
	}
}
MOTION
Frames: 10
Frame Time: 0.03333333
0.782591 32.719463 2.488050 0.000000 0.000000 0.000000 -13.108725 -53.647717 -7.658586 -18.728189 1.474866 13.191961 27.378817 -11.610595 -0.452122 -2.904530 -3.167402 -2.204603 -2.133982 -4.810801 4.020593 0.000000 0.000000 0.000000 -8.786300 -50.603632 -5.583838 4.983660 -11.209456 -18.947121 30.674123 6.874069 -3.004657 -19.760304 -12.771647 30.531748 -7.452227 -2.661193 -0.522407 0.000000 0.000000 0.000000 -13.967487 -46.253064 -7.877734 5.621259 5.536061 -1.460395 10.937756 10.119880 -3.440497 0.941201 -1.890127 0.615980 0.000000 0.000000 0.000000 10.856900 9.554134 -4.112811 -6.902726 -3.654182 1.589081 -4.390640 21.816838 0.187268 0.000000 0.000000 0.000000 10.023698 9.317437 -3.180424 2.424841 1.454096 -3.390238 -5.699742 2.634088 -6.112519 -14.842197 -3.262132 -56.372854 2.163327 -53.553946 1.210481 0.000000 0.000000 0.000000 9.961518 9.878031 -2.852790 2.660559 8.728808 9.621910 -2.934423 4.532005 -0.602555 -1.687259 -29.355398 65.835763 -8.576406 50.756567 9.391023 0.000000 0.000000 0.000000 
0.893943 32.880421 1.961161 0.000000 0.000000 0.000000 -12.054877 -53.421088 -6.560189 -18.704369 1.165443 13.543527 26.269304 -12.171199 -0.516360 -3.587626 -4.074003 -0.619956 -1.202472 -4.506994 2.993144 0.000000 0.000000 0.000000 -8.562573 -50.060939 -4.960973 5.288940 -11.238970 -19.891574 29.221656 6.844685 -3.165179 -21.518576 -12.028444 27.887792 -3.320098 -3.112661 0.037404 0.000000 0.000000 0.000000 -13.216653 -46.419649 -7.521352 5.475119 5.407938 -1.269926 11.218516 10.146515 -3.418663 1.437319 -1.427760 0.402942 0.000000 0.000000 0.000000 11.032181 9.554053 -4.051849 -6.898679 -3.387299 1.645813 -4.210923 22.418395 0.107191 0.000000 0.000000 0.000000 10.571924 9.293721 -3.208628 2.455239 1.263892 -3.657536 -5.148529 2.658179 -5.883269 -13.190319 -2.113728 -57.415410 1.992650 -52.037733 1.256319 0.000000 0.000000 0.000000 10.549175 9.945374 -2.934465 2.631168 9.100087 10.345201 -3.625357 4.054581 -0.126775 -0.862178 -29.679201 65.728263 -8.261530 49.745186 9.232048 0.000000 0.000000 0.000000 
1.097544 32.875572 0.968662 0.000000 0.000000 0.000000 -10.622469 -52.314024 -5.252992 -19.457875 0.976170 14.769700 24.160725 -12.503534 -0.952043 -2.895974 -4.731193 -2.297380 -0.509253 -4.034139 1.765976 0.000000 0.000000 0.000000 -7.847786 -48.501686 -4.123508 4.058085 -11.232843 -20.745889 30.081915 7.402313 -2.593923 -25.182742 -10.654795 22.374084 1.022556 -3.181901 -0.118089 0.000000 0.000000 0.000000 -12.213309 -45.425819 -6.867731 5.646213 4.984675 -1.379693 11.793309 10.063324 -3.393324 1.964948 -0.747881 0.307171 0.000000 0.000000 0.000000 11.547971 9.446080 -3.995976 -8.008193 -2.957381 1.846877 -4.076966 22.451926 -0.016975 0.000000 0.000000 0.000000 11.381060 9.172839 -3.264310 2.414408 1.251191 -3.414588 -4.716641 1.968014 -4.514891 -12.387762 -0.838110 -59.828571 3.082288 -50.825548 2.667355 0.000000 0.000000 0.000000 11.500922 9.861367 -3.138800 2.745683 9.449790 11.179275 -4.172857 3.460303 0.173275 -1.288315 -27.720806 64.315452 -7.643190 49.146667 8.487311 0.000000 0.000000 0.000000 
1.344750 32.658447 -0.415361 0.000000 0.000000 0.000000 -8.999205 -50.685345 -4.018476 -21.475684 0.976621 16.326225 21.994536 -12.156741 -1.462971 -0.753534 -4.892016 -6.104884 -0.122060 -3.441679 0.522150 0.000000 0.000000 0.000000 -6.529103 -46.240207 -3.096287 0.951348 -11.449690 -21.300027 34.086493 8.767297 -1.081030 -27.881420 -8.151452 15.832450 2.509091 -3.213861 -0.782064 0.000000 0.000000 0.000000 -10.742932 -43.526057 -5.813897 6.068320 4.274352 -1.748958 12.614127 9.818102 -3.349060 1.931990 -0.364255 0.672372 0.000000 0.000000 0.000000 12.434923 9.191847 -3.946721 -10.119509 -2.408249 2.200804 -4.138289 21.916052 -0.104093 0.000000 0.000000 0.000000 12.462179 8.912420 -3.334129 2.345261 1.481762 -2.672930 -4.400914 0.994227 -2.610628 -13.501833 -0.127555 -62.783119 4.478048 -49.163148 4.591799 0.000000 0.000000 0.000000 12.738364 9.586933 -3.390411 2.977920 9.765315 11.759907 -4.549215 2.772392 0.140681 -3.273230 -23.877158 61.768857 -6.946289 49.580394 7.268942 0.000000 0.000000 0.000000 
1.600204 32.181938 -1.968863 0.000000 0.000000 0.000000 -6.828139 -48.536571 -2.724008 -25.317326 1.219879 17.814084 20.658396 -10.751957 -1.746270 2.500622 -4.854232 -9.545213 0.331728 -2.877854 -0.785599 0.000000 0.000000 0.000000 -4.874762 -43.893494 -2.130273 -4.415557 -12.206778 -21.304024 40.349339 11.477913 1.206524 -27.483665 -4.655179 10.609474 -0.852184 -3.367802 -1.837202 0.000000 0.000000 0.000000 -8.691076 -40.927730 -4.447912 6.618185 3.360088 -2.265442 13.703533 9.350054 -3.285594 1.963612 0.003421 1.318299 0.000000 0.000000 0.000000 13.663456 8.731823 -3.910866 -13.155031 -1.882837 2.682613 -4.715037 20.624144 -0.011353 0.000000 0.000000 0.000000 13.790413 8.450556 -3.432998 2.277522 1.809850 -1.593321 -4.102880 -0.018887 -0.931697 -16.189039 -0.376992 -65.322481 5.045963 -46.869188 5.999762 0.000000 0.000000 0.000000 14.191028 9.091056 -3.617211 3.295844 10.024600 11.778779 -4.943623 2.286552 0.054708 -6.202099 -18.771896 58.706521 -6.399153 51.662987 5.670072 0.000000 0.000000 0.000000 
1.764780 31.464338 -3.315674 0.000000 0.000000 0.000000 -3.956142 -45.807934 -1.339687 -31.808652 1.180245 18.751161 20.885279 -8.964946 -1.689036 7.080489 -5.534361 -11.895855 0.009515 -2.426150 -1.682175 0.000000 0.000000 0.000000 -2.800693 -41.131843 -1.166235 -11.463779 -13.562676 -20.359558 47.386411 15.747136 3.642184 -24.938370 -0.434138 6.833166 -7.287094 -3.594564 -2.966727 0.000000 0.000000 0.000000 -5.883049 -37.966884 -2.983318 7.313363 2.331745 -2.749579 15.132747 8.642323 -3.254608 1.978098 0.412993 1.534414 0.000000 0.000000 0.000000 15.251491 8.077700 -3.899867 -16.836703 -1.583533 3.241326 -5.919051 18.784986 0.329877 0.000000 0.000000 0.000000 15.391078 7.805071 -3.596779 2.217057 2.075190 -0.424106 -3.606979 -0.971872 0.174790 -19.611246 -1.639754 -66.603299 4.220818 -44.715415 6.351912 0.000000 0.000000 0.000000 15.837412 8.398506 -3.799643 3.668598 10.242786 11.109033 -5.312869 2.134295 -0.207179 -9.314232 -13.754553 55.786994 -5.956061 55.422248 3.628863 0.000000 0.000000 0.000000 
1.809891 30.555161 -4.538311 0.000000 0.000000 0.000000 -0.346210 -42.278833 0.139747 -41.260616 0.517995 19.275562 23.234960 -8.288978 -1.294908 12.926748 -7.984798 -14.393225 -1.454817 -2.035897 -1.736753 0.000000 0.000000 0.000000 0.230650 -37.781810 0.018440 -18.947196 -15.791712 -17.972871 54.023552 20.587018 5.809809 -22.999194 4.292481 2.323601 -12.610605 -3.711271 -3.644774 0.000000 0.000000 0.000000 -2.121204 -35.073957 -1.513675 8.121183 1.414496 -3.067927 16.895494 7.751698 -3.310714 1.962548 0.636539 1.615674 0.000000 0.000000 0.000000 17.112086 7.259937 -3.930930 -20.911276 -1.564558 3.722822 -7.806615 16.462545 0.980313 0.000000 0.000000 0.000000 17.215101 7.004635 -3.870064 2.205994 2.092957 0.561656 -2.710941 -2.061059 0.770374 -22.878233 -3.991837 -66.235732 2.076471 -43.951612 5.622465 0.000000 0.000000 0.000000 17.676915 7.585213 -3.961724 4.078090 10.591489 9.970066 -5.551388 2.714977 -0.615559 -12.122853 -10.039444 53.637448 -5.341434 60.451108 1.002820 0.000000 0.000000 0.000000 
1.715663 29.450233 -5.608320 0.000000 0.000000 0.000000 3.931837 -37.587603 1.565920 -52.404992 -0.076921 18.812614 27.036404 -7.899231 -0.907727 16.665803 -11.264462 -14.762679 -3.222557 -1.816435 -1.243871 0.000000 0.000000 0.000000 4.054691 -33.744133 1.268093 -26.221492 -18.897911 -14.269361 59.730981 24.923125 7.778838 -23.453348 9.182867 -3.964638 -14.426176 -3.587521 -3.667824 0.000000 0.000000 0.000000 2.250036 -32.180604 -0.225828 8.991542 0.791634 -3.173514 18.959154 6.751697 -3.503568 1.785504 0.758950 1.442803 0.000000 0.000000 0.000000 19.165895 6.345536 -4.044917 -25.058060 -1.890683 3.971600 -10.287715 13.602325 1.824012 0.000000 0.000000 0.000000 19.170497 6.128459 -4.257939 2.225412 1.856954 1.282132 -1.903424 -2.990246 0.676981 -24.905894 -7.191093 -63.855773 -0.833236 -46.215242 3.949274 0.000000 0.000000 0.000000 19.685119 6.730908 -4.150460 4.482719 11.244841 8.489150 -5.491750 3.725858 -1.041463 -14.183216 -8.273226 52.329160 -4.113733 66.282799 -2.431663 0.000000 0.000000 0.000000 
1.572045 28.127871 -6.327976 0.000000 0.000000 0.000000 8.427250 -31.772595 2.661254 -63.971948 -0.438346 17.463679 32.740648 -7.191870 -0.742353 16.542833 -14.271769 -12.667581 -4.679854 -1.755975 -0.531015 0.000000 0.000000 0.000000 8.413051 -28.876848 2.383264 -33.655945 -22.209730 -10.279406 65.772031 28.578811 8.887670 -25.898047 13.759209 -10.682386 -14.920588 -3.053422 -3.434134 0.000000 0.000000 0.000000 6.966668 -29.095926 0.938849 9.867084 0.553248 -3.111542 21.111691 5.728000 -3.847774 1.315613 0.762385 1.239907 0.000000 0.000000 0.000000 21.270047 5.431826 -4.262664 -28.831779 -2.462708 3.955023 -13.165186 10.296722 2.707760 0.000000 0.000000 0.000000 21.131734 5.265385 -4.752174 2.280660 1.340995 1.830047 -1.388484 -3.842247 0.270741 -25.231436 -10.555479 -59.202809 -4.088527 -51.905637 1.339828 0.000000 0.000000 0.000000 21.736437 5.896661 -4.433091 4.902243 12.364191 6.836896 -4.746208 4.755265 -1.512016 -15.807312 -8.387655 51.284066 -1.530133 72.252699 -7.162457 0.000000 0.000000 0.000000 
1.419532 26.595524 -6.756691 0.000000 0.000000 0.000000 12.774457 -25.429368 3.293867 -75.734599 -0.836809 16.557007 42.319176 -6.515352 -0.866755 13.959279 -16.883162 -10.264428 -5.499624 -1.673809 -0.369665 0.000000 0.000000 0.000000 12.950727 -23.651763 3.178386 -42.205863 -25.028356 -7.389188 73.972253 31.327899 8.250048 -28.465515 17.047131 -16.123710 -17.642403 -2.103729 -3.433086 0.000000 0.000000 0.000000 11.664730 -25.539981 1.890167 10.534486 0.662159 -2.984316 23.122180 4.748819 -4.313106 0.833677 0.814685 1.122988 0.000000 0.000000 0.000000 23.187394 4.566137 -4.574783 -31.903759 -3.191754 3.682869 -16.302244 6.677061 3.465711 0.000000 0.000000 0.000000 22.893730 4.470420 -5.288697 2.385893 0.617815 2.268300 -1.085010 -4.809240 -0.079039 -24.282120 -13.325066 -52.748673 -7.881640 -59.966793 -2.487428 0.000000 0.000000 0.000000 23.593367 5.112149 -4.793688 5.351933 14.028886 5.285266 -3.768764 5.318521 -1.928019 -17.517975 -9.256682 49.677653 3.711261 77.508270 -14.304211 0.000000 0.000000 0.000000 
